<?xml version="1.0" encoding="iso-8859-1"?>
<!-- Generator: Adobe Illustrator 19.0.0, SVG Export Plug-In . SVG Version: 6.00 Build 0)  -->
<svg version="1.1" id="Capa_1" xmlns="http://www.w3.org/2000/svg" xmlns:xlink="http://www.w3.org/1999/xlink" x="0px" y="0px"
	 viewBox="0 0 496 496" style="enable-background:new 0 0 496 496;" xml:space="preserve">
<g>
	<g>
		<g>
			<path d="M456,0H264c-22.056,0-40,17.944-40,40v360h16V64h240v336h16V40C496,17.944,478.056,0,456,0z M480,48H240v-8
				c0-13.232,10.768-24,24-24h192c13.232,0,24,10.768,24,24V48z"/>
			<path d="M224,456c0,22.056,17.944,40,40,40h192c22.056,0,40-17.944,40-40v-40H224V456z M240,432h240v24c0,13.232-10.768,24-24,24
				H264c-13.232,0-24-10.768-24-24V432z"/>
			<rect x="320" y="448" width="80" height="16"/>
			<path d="M91.72,98.424L80.688,208.688l-30.256,3.024C21.68,214.592,0,238.552,0,267.44V336h16v-68.56
				c0-20.632,15.488-37.744,36.024-39.8l43.288-4.328l12.328-123.288C109.696,79.488,126.808,64,147.44,64H208V48h-60.56
				C118.544,48,94.592,69.68,91.72,98.424z"/>
			<path d="M0,376v32c0,13.232,10.768,24,24,24h8v40c0,13.232,10.768,24,24,24h48c13.232,0,24-10.768,24-24v-40h80v-16H24
				c-4.416,0-8-3.592-8-8v-32c0-4.408,3.584-8,8-8h184v-16H24C10.768,352,0,362.768,0,376z M48,464h16v-16H48v-16h64v16H96v16h16v8
				c0,4.408-3.584,8-8,8H56c-4.416,0-8-3.592-8-8V464z"/>
			<path d="M126.656,101.728L115.016,224H208v-16h-75.392l9.968-104.752c0.4-4.128,3.824-7.248,7.968-7.248H208V80h-57.456
				C138.12,80,127.84,89.336,126.656,101.728z"/>
			<path d="M141.48,313.432l-13.608-74.864l-15.736,2.856l13.608,74.864c2.072,11.416,12,19.704,23.608,19.704H208v-16h-58.648
				C145.488,320,142.168,317.24,141.48,313.432z"/>
			<path d="M104,276c0-19.848-16.152-36-36-36s-36,16.152-36,36c0,19.848,16.152,36,36,36S104,295.848,104,276z M48,276
				c0-11.024,8.968-20,20-20s20,8.976,20,20s-8.968,20-20,20S48,287.024,48,276z"/>
			<path d="M360,336c57.344,0,104-46.656,104-104s-46.656-104-104-104s-104,46.656-104,104S302.656,336,360,336z M360,144
				c48.52,0,88,39.48,88,88s-39.48,88-88,88c-48.52,0-88-39.48-88-88C272,183.48,311.48,144,360,144z"/>
			<path d="M352,288v16h16v-16c17.648,0,32-14.352,32-32s-14.352-32-32-32h-16c-8.824,0-16-7.176-16-16c0-8.824,7.176-16,16-16h16
				c8.824,0,16,7.176,16,16v8h16v-8c0-17.648-14.352-32-32-32v-16h-16v16c-17.648,0-32,14.352-32,32s14.352,32,32,32h16
				c8.824,0,16,7.176,16,16c0,8.824-7.176,16-16,16h-16c-8.824,0-16-7.176-16-16v-8h-16v8C320,273.648,334.352,288,352,288z"/>
			<rect x="256" y="96" width="16" height="16"/>
			<rect x="288" y="96" width="16" height="16"/>
			<rect x="320" y="96" width="16" height="16"/>
			<rect x="384" y="352" width="16" height="16"/>
			<rect x="416" y="352" width="16" height="16"/>
			<rect x="448" y="352" width="16" height="16"/>
		</g>
	</g>
</g>
<g>
</g>
<g>
</g>
<g>
</g>
<g>
</g>
<g>
</g>
<g>
</g>
<g>
</g>
<g>
</g>
<g>
</g>
<g>
</g>
<g>
</g>
<g>
</g>
<g>
</g>
<g>
</g>
<g>
</g>
</svg>
