<?xml version="1.0" encoding="iso-8859-1"?>
<!-- Generator: Adobe Illustrator 19.0.0, SVG Export Plug-In . SVG Version: 6.00 Build 0)  -->
<svg version="1.1" id="Capa_1" xmlns="http://www.w3.org/2000/svg" xmlns:xlink="http://www.w3.org/1999/xlink" x="0px" y="0px"
	 viewBox="0 0 480 480" style="enable-background:new 0 0 480 480;" xml:space="preserve">
<g>
	<g>
		<path d="M304,360H16v-88c0-13.255,10.745-24,24-24h136v-16H60.944l51.576-103.16c2.699-5.431,8.247-8.858,14.312-8.84H296v-16
			H126.832c-12.133-0.041-23.233,6.819-28.624,17.688L43.056,232H40c-22.08,0.026-39.974,17.92-40,40v184c0,13.255,10.745,24,24,24
			h64c13.255,0,24-10.745,24-24v-48h192v-16H40c-1.48-0.01-2.956-0.16-4.408-0.448c-0.44-0.08-0.872-0.208-1.312-0.312
			c-0.98-0.243-1.944-0.545-2.888-0.904c-0.448-0.176-0.896-0.352-1.328-0.552c-0.935-0.432-1.841-0.924-2.712-1.472
			c-0.328-0.208-0.68-0.392-1-0.608c-1.14-0.795-2.211-1.687-3.2-2.664c-0.168-0.168-0.312-0.368-0.48-0.544
			c-0.796-0.842-1.534-1.737-2.208-2.68c-0.264-0.376-0.504-0.8-0.744-1.16c-0.519-0.833-0.99-1.696-1.408-2.584
			c-0.192-0.424-0.4-0.856-0.568-1.296c-0.104-0.248-0.152-0.52-0.248-0.8H304V360z M80,408h16v48c0,4.418-3.582,8-8,8h-8V408z
			 M48,408h16v56H48V408z M19.04,401.928c1.341,0.836,2.73,1.592,4.16,2.264c0.8,0.368,1.6,0.712,2.4,1.032
			c1.55,0.587,3.134,1.078,4.744,1.472c0.568,0.144,1.088,0.392,1.672,0.512V464H24c-4.418,0-8-3.582-8-8v-56
			c0.304,0.224,0.664,0.392,0.976,0.616C17.64,401.088,18.344,401.496,19.04,401.928z"/>
	</g>
</g>
<g>
	<g>
		<path d="M168,280h136v-16H168c-13.255,0-24,10.745-24,24v32c0,13.255,10.745,24,24,24h136v-16H168c-4.418,0-8-3.582-8-8v-8h144
			v-16H160v-8C160,283.582,163.582,280,168,280z"/>
	</g>
</g>
<g>
	<g>
		<path d="M104,264H56c-13.255,0-24,10.745-24,24v32c0,13.255,10.745,24,24,24h48c13.255,0,24-10.745,24-24v-32
			C128,274.745,117.255,264,104,264z M112,320c0,4.418-3.582,8-8,8H56c-4.418,0-8-3.582-8-8v-32c0-4.418,3.582-8,8-8h48
			c4.418,0,8,3.582,8,8V320z"/>
	</g>
</g>
<g>
	<g>
		<path d="M480,224v-24c0-4.418-3.582-8-8-8h-34.232l-6.176-18.528c-1.089-3.268-4.147-5.473-7.592-5.472h-24v-12.688
			c24.091-9.874,39.873-33.276,40-59.312V8c0-4.418-3.582-8-8-8H320c-4.418,0-8,3.582-8,8v88c0.127,26.036,15.909,49.438,40,59.312
			V168h-48v-8h-16v11.056l-27.576,13.784c-2.712,1.355-4.425,4.128-4.424,7.16v16c-0.001,3.032,1.712,5.805,4.424,7.16L288,228.944
			V240h16v-8h45.392l-8.688,30.4c-1.634,5.665-6.808,9.575-12.704,9.6v16c13.028-0.041,24.468-8.669,28.088-21.184l0.8-2.816h26.952
			l14.4,72H376v16h25.44l6.72,33.6c0.76,3.725,4.038,6.401,7.84,6.4h16v16c0,4.418-3.582,8-8,8h-72c-17.673,0-32,14.327-32,32
			c0,17.673,14.327,32,32,32h128v-16H352c-8.837,0-16-7.163-16-16s7.163-16,16-16h72c13.255,0,24-10.745,24-24v-16h16
			c4.418-0.001,7.999-3.584,7.998-8.002c0-0.441-0.037-0.882-0.11-1.318l-23.024-138.168l26.712-13.312
			C478.301,229.838,480.017,227.047,480,224z M288,211.056l-16-8v-6.112l16-8V211.056z M328,16h96v16h-96V16z M328,96V48h96v48
			c-0.096,21.193-14.004,39.845-34.288,45.984c-3.389,1.011-5.711,4.128-5.712,7.664V168h-16v-18.352
			c-0.001-3.536-2.323-6.653-5.712-7.664C342.004,135.845,328.096,117.193,328,96z M361.464,248l4.568-16h11.408l3.2,16H361.464z
			 M464,219.056l-27.576,13.784c-3.144,1.572-4.894,5.013-4.312,8.48l1.112,6.68H416v16h19.888l2.672,16H424v16h17.224l2.664,16H432
			v16h14.552l2.672,16H440v16h11.888l2.664,16h-32L391.84,222.4c-0.76-3.725-4.038-6.401-7.84-6.4h-80v-32h114.232l6.176,18.528
			c1.089,3.268,4.147,5.473,7.592,5.472h32V219.056z"/>
	</g>
</g>
<g>
	<g>
		<rect x="184" y="192" width="56" height="16"/>
	</g>
</g>
<g>
	<g>
		<rect x="208.027" y="137.212" transform="matrix(0.4472 -0.8944 0.8944 0.4472 -27.3089 283.9022)" width="16" height="53.664"/>
	</g>
</g>
<g>
	<g>
		<rect x="189.133" y="228.004" transform="matrix(0.8944 -0.4472 0.4472 0.8944 -82.7435 121.4966)" width="53.664" height="16"/>
	</g>
</g>
<g>
	<g>
		<rect x="152" y="192" width="16" height="16"/>
	</g>
</g>
<g>
	<g>
		<rect x="160" y="136" width="16" height="16"/>
	</g>
</g>
<g>
	<g>
		<rect x="136" y="160" width="16" height="16"/>
	</g>
</g>
<g>
	<g>
		<path d="M360,96h-16c0,17.673,14.327,32,32,32v-16C367.163,112,360,104.837,360,96z"/>
	</g>
</g>
<g>
	<g>
		<rect x="344" y="64" width="16" height="16"/>
	</g>
</g>
<g>
</g>
<g>
</g>
<g>
</g>
<g>
</g>
<g>
</g>
<g>
</g>
<g>
</g>
<g>
</g>
<g>
</g>
<g>
</g>
<g>
</g>
<g>
</g>
<g>
</g>
<g>
</g>
<g>
</g>
</svg>
