<?xml version="1.0" encoding="iso-8859-1"?>
<!-- Generator: Adobe Illustrator 21.0.0, SVG Export Plug-In . SVG Version: 6.00 Build 0)  -->
<svg xmlns="http://www.w3.org/2000/svg" xmlns:xlink="http://www.w3.org/1999/xlink" version="1.1" id="Capa_1" x="0px" y="0px" viewBox="0 0 511.979 511.979" style="enable-background:new 0 0 511.979 511.979;" xml:space="preserve" width="512" height="512">
<g>
	<path d="M485.517,181.489L443.074,65.314H227.551l-25.108,68.725H71.917L27.931,254.438C11.282,263.777,0,281.592,0,302.001v53.66   c0,16.235,10.213,30.122,24.549,35.594v9.508c0,25.311,20.592,45.902,45.902,45.902c25.311,0,45.903-20.592,45.903-45.902v-7.012   h135.75v7.012c0,25.311,20.592,45.902,45.902,45.902c25.311,0,45.903-20.592,45.903-45.902v-9.508   c14.336-5.472,24.549-19.359,24.549-35.594v-40.899h31.026v6.028c0,24.549,19.972,44.521,44.521,44.521   s44.522-19.973,44.522-44.521v-8.958c13.758-5.749,23.452-19.342,23.452-35.16v-48.466   C511.979,208.402,501.359,191.034,485.517,181.489z M248.53,95.314h173.564l28.638,78.387H311.03l-14.49-39.662h-62.157   L248.53,95.314z M92.896,164.039h182.664l30.49,83.456H62.407L92.896,164.039z M86.354,400.762c0,8.769-7.134,15.902-15.903,15.902   c-8.769,0-15.902-7.134-15.902-15.902v-7.012h31.805V400.762z M156.967,363.751v-26.879h54.523v26.879H156.967z M241.49,363.751   v-56.879H126.967v56.879h-10.613H38.089c-4.46,0-8.089-3.629-8.089-8.09v-53.66c0-13.513,10.994-24.506,24.506-24.506h259.444   c13.513,0,24.507,10.993,24.507,24.506v53.66c0,4.461-3.629,8.09-8.089,8.09h-78.265H241.49z M313.909,400.762   c0,8.769-7.134,15.902-15.903,15.902c-8.769,0-15.902-7.134-15.902-15.902v-7.012h31.805V400.762z M365.647,284.761   c-4.329-12.947-13.387-23.742-25.121-30.324l-18.536-50.736h135.483c13.513,0,24.506,10.993,24.506,24.506v48.466   c0,4.46-3.629,8.089-8.089,8.089h-74.406H365.647z M458.527,320.79c0,8.007-6.515,14.521-14.522,14.521   s-14.521-6.515-14.521-14.521v-6.028h29.043V320.79z"/>
	<rect x="413.254" y="230.425" width="48.702" height="30"/>
	<rect x="265.816" y="306.872" width="50.979" height="30"/>
	<rect x="54.419" y="306.872" width="50.979" height="30"/>
</g>















</svg>
