<?xml version="1.0"?>
<svg xmlns="http://www.w3.org/2000/svg" xmlns:xlink="http://www.w3.org/1999/xlink" version="1.1" id="Capa_1" x="0px" y="0px" viewBox="0 0 512 512" style="enable-background:new 0 0 512 512;" xml:space="preserve" width="512px" height="512px"><g><g>
	<g>
		<path d="M422,256c-13.167,0-25.683,2.843-36.966,7.946l-13.776-20.542C390.777,232.294,413.294,226,437,226    c8.284,0,15-6.716,15-15v-30c0-57.897-47.103-105-105-105h-30c-8.284,0-15,6.716-15,15s6.716,15,15,15h15v30h-46    c-5.015,0-9.699,2.507-12.481,6.68L257.972,166H133.028l-7.532-11.298C117.688,142.992,104.625,136,90.55,136H15    c-8.284,0-15,6.716-15,15c0,38.538,29.218,70.381,66.666,74.54l20.344,30.515C38.763,257.639,0,297.375,0,346    c0,49.626,40.374,90,90,90c38.422,0,72.331-24.601,84.861-60c9.005,0,80.148,0,89.005,0c19.951,0,37.272-14.199,41.184-33.762    l2.125-10.626c5.57-27.849,19.914-52.22,39.828-70.514l13.139,19.593C342.821,297.103,332,320.311,332,346    c0,49.626,40.374,90,90,90c49.626,0,90-40.374,90-90C512,296.374,471.626,256,422,256z M237.972,196l-20,30h-44.944l-20-30    H237.972z M90,406c-33.084,0-60-26.916-60-60s26.916-60,60-60c2.706,0,5.381,0.192,8.024,0.543C76.512,289.906,60,308.56,60,331    c0,24.813,20.187,44.9,45,44.9h36.954C131.451,394.002,111.821,406,90,406z M105,346c-8.271,0-15-6.729-15-15s6.729-15,15-15    c8.277,0,72.52,0,81.729,0l15.001,30C200.198,346,107.753,346,105,346z M277.757,325.728l-2.125,10.626    c-1.118,5.59-6.067,9.646-11.767,9.646c-12.191,0-1.964,0-21.177,0c-4.575,0-8.688-2.542-10.733-6.633l-22.539-45.075    C206.875,289.21,201.682,286,196,286h-31h-15.55c-4.021,0-7.754-1.998-9.984-5.344c-6.634-9.951-45.675-68.512-51.985-77.977    C84.699,198.507,80.015,196,75,196c-19.556,0-36.239-12.539-42.43-30h57.98c4.021,0,7.754,1.998,9.985,5.344l12.011,18.016    c0.01,0.016,0.021,0.031,0.031,0.047l39.943,59.914c2.781,4.172,7.465,6.679,12.48,6.679h61c5.015,0,9.699-2.507,12.481-6.679    l39.942-59.914c0.011-0.016,0.021-0.032,0.032-0.048l15.572-23.459h52.92c0.018,0,0.035,0,0.052,0c8.284,0,15-6.616,15-14.9    v-43.493c34.191,6.969,60,37.275,60,73.493v15.69C351.231,203.221,291.808,255.472,277.757,325.728z M422,406    c-33.084,0-60-26.916-60-60c0-15.29,5.758-29.255,15.207-39.862l32.335,48.217c4.615,6.882,13.935,8.717,20.813,4.104    c6.88-4.614,8.718-13.932,4.104-20.813l-32.351-48.241C408.336,287.208,415.028,286,422,286c33.084,0,60,26.916,60,60    S455.084,406,422,406z" data-original="#000000" class="active-path" data-old_color="#ffffff" fill="#ffffff"/>
	</g>
</g></g> </svg>
