<svg height="512pt" viewBox="0 -75 512 512" width="512pt" xmlns="http://www.w3.org/2000/svg"><path d="m509.710938 171.660156-55.835938-89.097656c-2.742188-4.378906-7.546875-7.035156-12.710938-7.035156h-102.179687v-22.953125c0-28.988281-23.582031-52.574219-52.574219-52.574219h-239.859375c-25.667969 0-46.550781 20.882812-46.550781 46.550781v232.835938c0 8.28125 6.714844 15 15 15h48.402344c-.097656 1.425781-.164063 2.867187-.164063 4.316406 0 34.808594 28.320313 63.128906 63.128907 63.128906 34.808593 0 63.125-28.320312 63.125-63.128906 0-1.453125-.066407-2.890625-.164063-4.316406h169.453125c-.09375 1.425781-.164062 2.867187-.164062 4.316406 0 34.808594 28.320312 63.128906 63.128906 63.128906s63.125-28.320312 63.125-63.128906c0-1.453125-.066406-2.890625-.164063-4.316406h12.292969c8.285156 0 15-6.71875 15-15v-99.761719c0-2.816406-.792969-5.578125-2.289062-7.964844zm-36.472657-1.703125h-64.636719v-64.429687h24.261719zm-443.238281-123.40625c0-9.125 7.425781-16.550781 16.550781-16.550781h239.859375c12.449219 0 22.574219 10.128906 22.574219 22.574219v143.289062h-278.984375zm0 217.835938v-38.523438h278.984375v38.523438h-129.679687c-11.265626-17.324219-30.78125-28.808594-52.9375-28.808594-22.160157 0-41.675782 11.488281-52.941407 28.808594zm96.367188 67.445312c-18.265626 0-33.128907-14.859375-33.128907-33.125s14.863281-33.128906 33.128907-33.128906c18.265624 0 33.125 14.863281 33.125 33.128906s-14.859376 33.125-33.125 33.125zm295.378906 0c-18.265625 0-33.128906-14.859375-33.128906-33.125s14.863281-33.128906 33.128906-33.128906 33.125 14.863281 33.125 33.128906-14.859375 33.125-33.125 33.125zm0-96.253906c-22.160156 0-41.675782 11.488281-52.941406 28.808594h-29.820313v-158.859375h39.617187v79.425781c0 8.285156 6.71875 15 15 15h88.398438v64.429687h-7.316406c-11.265625-17.320312-30.78125-28.804687-52.9375-28.804687zm0 0"/></svg>