<?xml version="1.0" encoding="iso-8859-1"?>
<!-- Generator: Adobe Illustrator 16.0.0, SVG Export Plug-In . SVG Version: 6.00 Build 0)  -->
<!DOCTYPE svg PUBLIC "-//W3C//DTD SVG 1.1//EN" "http://www.w3.org/Graphics/SVG/1.1/DTD/svg11.dtd">
<svg xmlns="http://www.w3.org/2000/svg" xmlns:xlink="http://www.w3.org/1999/xlink" version="1.1" id="Capa_1" x="0px" y="0px" width="512px" height="512px" viewBox="0 0 388.596 388.596" style="enable-background:new 0 0 388.596 388.596;" xml:space="preserve">
<g>
	<g>
		<path d="M194.298,0C87.161,0,0,87.162,0,194.298s87.161,194.298,194.298,194.298c107.136,0,194.297-87.162,194.297-194.298    S301.434,0,194.298,0z M296.875,244.629c0.992,2.398,2.896,4.418,5.481,5.49l33.136,13.75    c-25.73,52.007-79.351,87.857-141.194,87.857c-61.918,0-115.593-35.937-141.287-88.044l33.153-13.706    c5.173-2.14,7.637-8.068,5.495-13.242c-2.139-5.176-8.067-7.637-13.242-5.498l-33.186,13.721    c-5.42-15.904-8.362-32.944-8.362-50.658c0-17.788,2.971-34.895,8.433-50.854l33.162,13.762    c5.175,2.146,11.106-0.306,13.253-5.479c2.146-5.173-0.307-11.104-5.48-13.25l-33.133-13.75    c15.376-31.077,40.708-56.38,71.81-71.715l13.706,33.152c2.139,5.175,8.068,7.635,13.244,5.497    c5.175-2.14,7.636-8.068,5.498-13.244l-13.724-33.183c15.904-5.42,32.943-8.364,50.66-8.364c17.788,0,34.894,2.97,50.854,8.432    l-13.762,33.164c-1.074,2.586-0.996,5.362-0.006,7.76c0.992,2.398,2.898,4.417,5.482,5.491c5.172,2.146,11.104-0.306,13.253-5.478    l13.749-33.134c31.077,15.375,56.38,40.708,71.717,71.809l-33.156,13.708c-5.174,2.139-7.634,8.068-5.494,13.242    c2.141,5.176,8.068,7.636,13.242,5.497l33.187-13.72c5.42,15.904,8.362,32.943,8.362,50.658c0,17.788-2.971,34.896-8.433,50.854    l-33.164-13.763c-5.173-2.146-11.104,0.306-13.252,5.478C295.807,239.456,295.882,242.23,296.875,244.629z" fill="#aaaaaa"/>
		<path d="M267.623,106.354c-0.944-0.746-2.288-0.713-3.195,0.08c-3.744,3.274-7.624,6.832-11.533,10.577    c-3.118,2.99-6.264,6.098-9.353,9.236c-0.876,0.891-1.762,1.802-2.656,2.725l0,0c-0.689-0.106-1.396-0.162-2.041-0.162    c-3.932,0-7.634,1.725-10.158,4.733c-2.688,3.203-3.687,7.396-2.736,11.508c-0.991,1.105-1.98,2.221-2.938,3.33    c-3.157,3.56-6.276,7.25-9.306,10.833l-2.764,3.325c-2.84,3.457-5.776,7.031-8.537,10.561l-0.469,0.594    c-2.49-0.714-5.061-1.077-7.638-1.077c-15.247,0-27.651,12.405-27.651,27.653c0,5.784,1.774,11.328,5.131,16.034l-0.703,1.14    c-1.703,2.789-3.172,5.271-4.361,7.371c-2.052,3.594-3.246,5.943-3.6,6.652c-0.769,1.605-0.534,3.531,0.599,4.904    c0.873,1.056,2.161,1.662,3.533,1.662c1.076,0,2.084-0.363,2.932-1.063c0.378-0.315,2.423-2.036,5.578-4.993    c1.785-1.66,3.863-3.666,6.184-5.975l0.671-0.674h0.001c3.678,1.721,7.61,2.592,11.688,2.592    c15.246,0,27.649-12.405,27.649-27.652c0-5.259-1.487-10.38-4.303-14.808l0.119-0.154c2.813-3.521,5.596-7.187,8.338-10.798    l2.625-3.503c2.772-3.762,5.639-7.651,8.313-11.466c1.04-1.447,2.036-2.875,3.022-4.302c3.5-0.326,6.666-1.982,8.917-4.665    c2.275-2.711,3.359-6.146,3.052-9.673c-0.081-0.918-0.269-1.852-0.554-2.774v-0.001c0.807-1.259,1.601-2.51,2.375-3.74    c2.316-3.699,4.609-7.479,6.813-11.236c2.728-4.651,5.289-9.25,7.616-13.667C268.846,108.415,268.568,107.101,267.623,106.354z" fill="#aaaaaa"/>
		<path d="M262.554,169.852c-0.771,0-1.554,0.069-2.323,0.205c-3.484,0.614-6.521,2.549-8.553,5.448    c-2.03,2.899-2.809,6.415-2.192,9.899c1.117,6.345,6.596,10.95,13.024,10.95c0.773,0,1.554-0.068,2.321-0.203    c3.484-0.615,6.521-2.551,8.551-5.448c2.03-2.897,2.811-6.413,2.195-9.9C274.459,174.457,268.98,169.852,262.554,169.852z" fill="#aaaaaa"/>
		<path d="M139.11,185.406c0.616-3.485-0.161-7.001-2.194-9.901c-2.029-2.899-5.066-4.834-8.551-5.448    c-0.77-0.136-1.551-0.205-2.322-0.205c-6.428,0-11.905,4.605-13.024,10.952c-0.614,3.486,0.165,7.001,2.194,9.898    c2.03,2.899,5.066,4.834,8.553,5.449c0.77,0.136,1.551,0.205,2.322,0.205C132.515,196.355,137.992,191.749,139.11,185.406z" fill="#aaaaaa"/>
		<path d="M149.772,155.307c2.195,0,5.453-0.538,8.506-3.1c5.596-4.695,6.328-13.068,1.633-18.664    c-2.523-3.008-6.227-4.733-10.158-4.733c-2.195,0-5.454,0.538-8.504,3.1c-2.713,2.274-4.375,5.468-4.685,8.995    c-0.309,3.525,0.775,6.96,3.05,9.669C142.137,153.582,145.84,155.307,149.772,155.307z" fill="#aaaaaa"/>
		<path d="M194.298,139.097c7.306,0,13.248-5.943,13.248-13.248c0-7.305-5.942-13.248-13.248-13.248    c-7.306,0-13.248,5.943-13.248,13.248C181.05,133.153,186.992,139.097,194.298,139.097z" fill="#aaaaaa"/>
		<path d="M239.334,262.32h-90.072c-12.473,0-22.583,10.11-22.583,22.584c0,12.473,10.11,22.582,22.583,22.582h90.072    c12.473,0,22.581-10.109,22.581-22.582C261.916,272.431,251.807,262.32,239.334,262.32z" fill="#aaaaaa"/>
	</g>
</g>
<g>
</g>
<g>
</g>
<g>
</g>
<g>
</g>
<g>
</g>
<g>
</g>
<g>
</g>
<g>
</g>
<g>
</g>
<g>
</g>
<g>
</g>
<g>
</g>
<g>
</g>
<g>
</g>
<g>
</g>
</svg>
