<?xml version="1.0"?>
<svg xmlns="http://www.w3.org/2000/svg" height="512px" viewBox="0 0 512.00002 512.00002" width="512px"><g><path d="m0 241h48.789062v30h-48.789062zm0 0" data-original="#000000" class="active-path" data-old_color="#000000" fill="#FFFFFF"/><path d="m241 463.210938h30v48.789062h-30zm0 0" data-original="#000000" class="active-path" data-old_color="#000000" fill="#FFFFFF"/><path d="m241 0h30v48.789062h-30zm0 0" data-original="#000000" class="active-path" data-old_color="#000000" fill="#FFFFFF"/><path d="m271 463.128906c102.582031-7.355468 184.773438-89.546875 192.128906-192.128906h-192.128906zm50.921875-168.277344 13.910156 23.539063 14.007813-23.539063h22.179687l-25.679687 43.382813v24.710937h-22.957032v-25l-25.683593-43.09375zm0 0" data-original="#000000" class="active-path" data-old_color="#000000" fill="#FFFFFF"/><path d="m241 48.871094c-102.582031 7.355468-184.773438 89.546875-192.128906 192.128906h192.128906zm-58.546875 145.050781c6.125 0 10.894531-2.917969 14.882813-7.980469l14.492187 12.941406c-6.710937 8.753907-17.214844 13.617188-30.542969 13.617188-21.886718 0-37.9375-14.6875-37.9375-35.601562 0-20.917969 16.050782-35.605469 37.9375-35.605469 13.328125 0 23.832032 4.863281 30.542969 13.617187l-14.492187 12.941406c-3.988282-5.0625-8.757813-7.980468-14.882813-7.980468-9.535156 0-15.953125 6.617187-15.953125 17.023437 0 10.410157 6.417969 17.027344 15.953125 17.027344zm0 0" data-original="#000000" class="active-path" data-old_color="#000000" fill="#FFFFFF"/><path d="m48.871094 271c7.355468 102.582031 89.546875 184.773438 192.128906 192.128906v-192.128906zm140.195312 91.945312-17.023437-22.566406-5.15625 5.738282v16.828124h-22.566407v-68.09375h22.566407v24.707032l22.375-24.707032h25l-27.238281 29.960938 28.601562 38.132812zm0 0" data-original="#000000" class="active-path" data-old_color="#000000" fill="#FFFFFF"/><path d="m463.128906 241c-7.355468-102.582031-89.546875-184.773438-192.128906-192.128906v192.128906zm-169.609375-98.148438h18.871094l22.179687 36.285157 21.59375-36.285157h18.871094l.195313 68.09375h-20.914063l-.195312-31.03125-14.785156 24.902344h-10.117188l-14.785156-23.832031v29.960937h-20.914063zm0 0" data-original="#000000" class="active-path" data-old_color="#000000" fill="#FFFFFF"/><path d="m463.210938 241h48.789062v30h-48.789062zm0 0" data-original="#000000" class="active-path" data-old_color="#000000" fill="#FFFFFF"/></g> </svg>
