<?xml version="1.0" encoding="UTF-8"?>
<!-- Generator: Adobe Illustrator 19.0.0, SVG Export Plug-In . SVG Version: 6.00 Build 0)  -->
<svg version="1.1" xmlns="http://www.w3.org/2000/svg" xmlns:xlink="http://www.w3.org/1999/xlink" x="0px" y="0px" viewBox="0 0 613 192" style="enable-background:new 0 0 613 192;" xml:space="preserve">
<style type="text/css">
	.st0{fill-rule:evenodd;clip-rule:evenodd;fill:url(#SVGID_1_);}
	.st1{fill-rule:evenodd;clip-rule:evenodd;fill:url(#SVGID_2_);}
	.st2{fill-rule:evenodd;clip-rule:evenodd;fill:url(#SVGID_3_);}
	.st3{fill-rule:evenodd;clip-rule:evenodd;fill:url(#SVGID_4_);}
	.st4{fill-rule:evenodd;clip-rule:evenodd;fill:url(#SVGID_5_);}
	.st5{fill-rule:evenodd;clip-rule:evenodd;fill:url(#SVGID_6_);}
	.st6{fill-rule:evenodd;clip-rule:evenodd;fill:url(#SVGID_7_);}
</style>
<g id="Camada_2">
</g>
<g id="Camada_1">
	<g>
		<linearGradient id="SVGID_1_" gradientUnits="userSpaceOnUse" x1="23.8073" y1="88.1925" x2="981.0405" y2="88.1925">
			<stop offset="0" style="stop-color:#D76F2C"/>
			<stop offset="1" style="stop-color:#ECB730"/>
		</linearGradient>
		<path class="st0" d="M23.6,146C10.8,124.7,6.7,100.2,8,75.1c0.2-3.7,0.7-8,3.6-10.8c1.8-1.8,4.1-2.6,6.5-3.1c2.9-0.6,6-0.8,8.9-1    c14.2-0.9,29-0.8,43.1-3.4c13.9-2.5,27.2-8.3,39.5-15.4c46-26.5,102.6-35.3,154-32.5c33.8,1.8,51.5,7.7,81.8,20.5    c14.3,6.1,29.5,11.4,44.7,14.8l5.1,1.1l-8.2,0.7c-41.8-2.9-61.3-25.8-120.3-29.8c-50.1-3.4-105.6,7-150.5,32.9    C79.2,70.6,65.3,65.4,27.1,67.8c-2.4,0.2-9.5,0.4-11.3,2.2c-1.4,1.4-1.6,4.9-1.7,6.6c-1.3,24.4-1.2,45.1,10.7,66l0.4,5.9L23.6,146    L23.6,146z M597.2,149.8c9.2-12.4,6.3-42,0-55.7c-3.1-6.8-8.8-11.1-16.8-14.7c-15.3-7.3-31.4-13.1-47.8-17.5l-0.1,0    C469.9,46.8,392.8,42.5,330,61.7c-76.7,23.5-127.7,24.4-199.8-12.7l-0.9-0.4l-3.3,1.8C200.8,88.9,249.4,96,331.8,70.7    c61.7-18.9,137.8-14.6,199.3,0.2c16,4.3,31.7,10,46.7,17.1l0,0c19,8.6,22.3,46.8,13,59.5c-6.9,9.4-17.6,15-28.4,18.3l-0.5,2.1    C573.8,164.4,589.6,160.1,597.2,149.8z"/>
		<g>
			<g>
				<linearGradient id="SVGID_2_" gradientUnits="userSpaceOnUse" x1="211.1252" y1="142.2603" x2="293.2953" y2="142.2603">
					<stop offset="0" style="stop-color:#EFF5F6"/>
					<stop offset="1" style="stop-color:#B7B8BA"/>
				</linearGradient>
				<polygon class="st1" points="211.1,180.6 281.8,180.6 284,167 233,167 236.2,147.2 285,147.2 286.8,136.1 238,136.1 241,117.5       291.1,117.5 293.3,104 223.6,104     "/>
				<linearGradient id="SVGID_3_" gradientUnits="userSpaceOnUse" x1="125.7692" y1="142.2603" x2="213.6154" y2="142.2603">
					<stop offset="0" style="stop-color:#EFF5F6"/>
					<stop offset="1" style="stop-color:#B7B8BA"/>
				</linearGradient>
				<polygon class="st2" points="125.8,180.6 145.4,180.6 150.6,148.9 186.7,148.9 181.5,180.6 201.2,180.6 213.6,104 193.9,104       189,134.3 152.9,134.3 157.9,104 138.2,104     "/>
				<linearGradient id="SVGID_4_" gradientUnits="userSpaceOnUse" x1="47.4057" y1="142.2603" x2="128.7767" y2="142.2603">
					<stop offset="0" style="stop-color:#EFF5F6"/>
					<stop offset="1" style="stop-color:#B7B8BA"/>
				</linearGradient>
				<polygon class="st3" points="66.9,180.6 86.8,180.6 97,117.5 126.6,117.5 128.8,104 49.6,104 47.4,117.5 77.1,117.5     "/>
			</g>
			<linearGradient id="SVGID_5_" gradientUnits="userSpaceOnUse" x1="298.8918" y1="142.2599" x2="379.2247" y2="142.2599">
				<stop offset="0" style="stop-color:#EFF5F6"/>
				<stop offset="1" style="stop-color:#B7B8BA"/>
			</linearGradient>
			<path class="st4" d="M375.5,151.6l-0.4,2.3c-1.7,10.6-5.5,18.2-11.5,22.9c-5.9,4.7-14.8,7-26.5,7H329c-12.8,0-21.3-2.5-25.6-7.3     c-4.3-4.9-5.5-13.5-3.5-25.8l2.7-16.8c2-12.3,6-20.9,11.9-25.8c5.9-4.9,15.3-7.3,28-7.3h6.7c12.7,0,21.2,2.1,25.5,6.4     c4.3,4.3,5.6,11.8,3.8,22.7l-0.3,1.6h-24.1l0.2-1.5c0.6-3.7,0.1-6.3-1.6-7.8c-1.6-1.5-4.8-2.3-9.6-2.3c-5.2,0-8.8,0.9-10.9,2.7     c-2,1.8-3.6,6.2-4.7,13.1l-2.2,13.3c-1.1,6.9-1,11.3,0.5,13.1c1.4,1.8,4.8,2.7,10,2.7c4.9,0,8.4-0.8,10.5-2.5     c2.1-1.7,3.5-4.6,4.2-8.8l0.3-1.9H375.5z"/>
			<linearGradient id="SVGID_6_" gradientUnits="userSpaceOnUse" x1="368.3811" y1="142.2599" x2="456.9065" y2="142.2599">
				<stop offset="0" style="stop-color:#EFF5F6"/>
				<stop offset="1" style="stop-color:#B7B8BA"/>
			</linearGradient>
			<path class="st5" d="M407.9,152.1h19.8l-3.5-33.6h-1.6L407.9,152.1L407.9,152.1z M368.4,182.8l39.1-81.1h37.2l12.2,81.1H431     l-1.8-14.2h-28.5l-6.4,14.2H368.4z"/>
			<linearGradient id="SVGID_7_" gradientUnits="userSpaceOnUse" x1="463.0645" y1="142.2599" x2="545.8263" y2="142.2599">
				<stop offset="0" style="stop-color:#EFF5F6"/>
				<stop offset="1" style="stop-color:#B7B8BA"/>
			</linearGradient>
			<path class="st6" d="M494.1,140.9h13.5c4,0,6.9-0.6,8.5-1.9c1.7-1.3,2.8-3.6,3.3-7l0.5-3.1c0.6-3.4,0.2-5.8-1.1-7.1     c-1.3-1.3-3.9-1.9-7.9-1.9h-13.5L494.1,140.9L494.1,140.9z M463.1,182.8l13.2-81.1h36.4c13.9,0,23.2,1.6,27.8,4.9     c4.6,3.3,6.3,9.1,5,17.3l-1.1,6.5c-0.9,5.5-3.1,9.8-6.5,12.9c-3.4,3.1-8.1,5-14,5.6c6,0.9,10.1,2.7,12.4,5.4     c2.4,2.7,3.1,6.6,2.3,11.7l-2.7,16.7h-24.7l2.4-14.6c0.6-3.5,0.2-5.8-1.1-7.1c-1.3-1.3-3.9-1.9-7.9-1.9h-13.4l-3.8,23.6H463.1z"/>
		</g>
	</g>
</g>
</svg>