<?xml version="1.0" encoding="UTF-8" standalone="no"?>
<svg
   xmlns:dc="http://purl.org/dc/elements/1.1/"
   xmlns:cc="http://creativecommons.org/ns#"
   xmlns:rdf="http://www.w3.org/1999/02/22-rdf-syntax-ns#"
   xmlns:svg="http://www.w3.org/2000/svg"
   xmlns="http://www.w3.org/2000/svg"
   viewBox="0 0 465.67999 353.50668"
   height="353.50668"
   width="465.67999"
   xml:space="preserve"
   id="svg2"
   version="1.1"><metadata
     id="metadata8"><rdf:RDF><cc:Work
         rdf:about=""><dc:format>image/svg+xml</dc:format><dc:type
           rdf:resource="http://purl.org/dc/dcmitype/StillImage" /></cc:Work></rdf:RDF></metadata><defs
     id="defs6" /><g
     transform="matrix(1.3333333,0,0,-1.3333333,0,353.50667)"
     id="g10"><g
       transform="scale(0.1)"
       id="g12"><path
         id="path14"
         style="fill:#231f20;fill-opacity:1;fill-rule:nonzero;stroke:none"
         d="m 1552.6,2254.22 c -10.89,-1.74 -45.69,-11.11 -49.34,-12.36 -3.78,-1.22 -5.76,-2.43 -8.23,-6.45 -2.47,-3.95 -3.56,-12.62 -2.51,-15.94 1.02,-3.46 4.52,-6.04 9.91,-3.77 7.36,3.03 50.5,18.91 58.08,21.32 3.26,1.07 4.67,2.74 5.32,4.49 1.07,2.82 1.4,6.52 1.07,9.47 -0.72,6.01 -6.99,4.42 -14.3,3.24" /><path
         id="path16"
         style="fill:#231f20;fill-opacity:1;fill-rule:nonzero;stroke:none"
         d="m 2334.07,1013.07 c -26.27,78.35 -132.17,275 -215.39,385.65 -18.03,24.12 -11.25,36.52 -1.64,44.34 9.57,7.78 40.54,34.54 77.2,76.47 37.02,42.36 45.93,90.22 19.76,159.47 -26.06,68.6 -112.12,231.68 -130.17,285.7 -20.72,62.28 -22.83,89.98 -10.33,123.93 14.71,39.96 36.21,41.64 52.38,41.4 8.7,-0.17 15.18,-9.34 15.23,-13.55 0.42,-17.6 1.33,-39.35 18.5,-84.88 27.43,-72.45 97.84,-119.78 120.04,-129.34 15.49,-6.69 18.27,5.29 16.93,11.07 -1.44,5.73 -24.37,95.56 -41.58,163.08 -17.96,70.73 -27.01,86.07 -42.98,101.07 -25.49,24.17 -64.26,37.11 -97.07,35.88 -73.07,-2.85 -105.4,-73.48 -109.38,-80.04 -3.52,-5.86 -4.86,-10 -12.31,-4.82 -20.86,14.6 -81.95,65.57 -87.55,97.51 -3.31,18.87 -6.58,21.53 -25.45,28.83 -73.36,28.63 -136.93,53.8 -207.27,66.23 -28.22,4.94 -29.72,7.41 -62.64,1.27 -55.89,-10.45 -90.16,-23.32 -132.15,-45.35 -23.18,-12.25 -25.85,-20.48 -30.34,-26.31 -3.48,-4.55 -7.24,-10.04 -15.59,-12.75 -13.94,-4.55 -65.82,-23.87 -83.61,-34.22 -11.11,-6.43 -17.13,-13.24 -11.47,-25.78 9.94,-22.1 39.83,-68.18 52.85,-79.81 7.89,-6.96 27.73,-11.8 32.45,-12.77 4.7,-1.17 8.01,-2.54 9.78,0.97 1.93,3.87 2.66,9.5 11.91,16.02 13.93,9.75 39.83,16.52 53.61,17.74 10.54,0.88 16.98,1.22 22.42,-2.68 5.4,-3.99 17.88,-17.29 22.22,-30.68 4.33,-13.38 1.64,-18.4 -5.86,-21.55 -7.5,-3.12 -29.98,-8.24 -56.04,-10.33 -25.95,-2.11 -33.34,5.08 -35.19,6.68 -1.36,1.48 -4.8,3.71 -7.44,0.2 -4.35,-6.1 -10.9,-10.03 -21.06,-15.08 -5.78,-2.79 -8.85,-8.91 -3.39,-18.46 16.57,-28.61 38.35,-60.74 58.59,-66.87 16.05,-4.99 24.68,0.27 42.81,13.2 16.15,11.7 26.69,11.64 31.13,8.37 4.85,-3.66 14.65,-11.95 12.13,-20.18 -4.32,-14.39 -33.21,-48.59 -38.79,-55.65 -5.21,-6.66 -10.14,-10.24 -19.52,-5.75 -13.68,6.54 -221.45,114.33 -249.17,125.14 -30.25,11.6 -50.15,14.44 -79.9,15.82 -24.08,1.04 -56.23,-1.28 -76.35,-4.92 -14.66,-2.71 -23,-9.65 -36.66,-22.29 -18.82,-17.38 -38.7,-39.62 -40.56,-58.17 -1.35,-13.33 13.49,-40.54 15.11,-42.44 1.63,-2.05 4.35,-5.79 12.42,-4.91 8.19,0.92 28.77,11.6 53.28,7.36 22.23,-3.86 24.48,-21.32 25.61,-34.71 0.18,-2.29 3.01,-7.49 9.28,-7.4 8.86,0.11 22.7,-0.15 38.69,-7.82 19.72,-9.36 58.75,-39.58 64.73,-46.26 4.87,-5.49 4.55,-10.4 -4.72,-11.32 -49.56,-4.36 -124.93,-19.11 -159.83,-30.56 -24.76,-8.1 -53.95,-19.21 -64.25,-37.14 -11.707,-20.32 -26.519,-52.96 -30.73,-76.21 -4.25,-23.19 20.555,-51.92 27.2,-58.31 4.46,-4.34 7.49,-7.07 15.4,-2.74 12.11,6.96 41.42,25.01 69.47,26.69 17.02,1 23.84,-15.03 27.9,-20.91 4.12,-5.79 8.06,-1.81 23.28,2.31 27.04,7.25 177.77,4.51 230.98,2.01 24.33,-1.03 58.2,-4.66 83.11,-18.41 24.78,-13.64 69.61,-55.94 69.61,-55.94 0,0 -59.57,-99.87 -91.62,-159.05 -29.69,-54.68 -51.37,-95.76 -62.06,-119.55 -9.84,-21.74 -17.86,-52.61 -16.09,-76.94 2.66,-35.54 3.6,-53.79 3.16,-69.9 -0.44,-14.18 -13.63,-15.73 -32.38,-20.34 -25.84,-6.55 -77.32,-11.3 -119.05,-21.58 -37.94,-9.44 -52.08,-18.39 -58.94,-47.72 -5.29,-22.8 -13.12,-79.559 -14.04,-105.828 -0.46,-10.621 -0.65,-15.801 12.82,-13.024 7.73,1.512 30.05,4.723 58.47,6.813 35.21,2.699 73.33,2.14 102.8,2.25 54.19,0.308 214.23,-9.063 225,-10.102 13.68,-1.359 16.45,0.289 15.52,9.84 -1.31,12.641 -3.61,52.852 -4.17,76.832 -0.69,24.069 -4.31,48.469 17.39,71.869 21.58,23.42 184.68,205.36 193.73,214.67 7.9,7.94 13.18,16.36 25.28,5.26 12.28,-11.24 146.52,-108.06 173.81,-127.84 27.31,-19.8 52.65,-26.53 83.75,-26.96 22.14,-0.4 28.32,-39.07 9.49,-42.7 -19.38,-3.72 -48.83,-9.76 -69.44,-14.46 -31.77,-7.43 -41.5,-17.8 -51.09,-39.24 -8.16,-18.08 -17.14,-106.931 -17.46,-114.591 -0.23,-5.508 -0.57,-13.539 8.2,-11.699 39.16,7.91 101.31,10.191 167.74,8.101 76.27,-2.359 150.33,-8.672 160.72,-9.269 11.22,-0.774 12.3,0.886 17.95,9.66 9.67,15.066 38.36,48.226 63.32,68.707 12.48,10.16 12.74,14.383 7.56,29.691 z m -293.16,801.86 c 0.5,6.21 0.7,12.54 0.99,19.19 0.32,6.76 0.19,12.48 0.47,20.22 0.21,6.23 5.19,7.88 8.3,3.73 3.41,-4.52 11.26,-28.55 28.09,-59.69 25.21,-46.81 55.17,-105.33 65.52,-130.49 9.79,-24.02 5,-42.34 -9.9,-60.81 -20.2,-24.96 -79.15,-52.09 -93.31,-56.73 -19.35,-6.34 -31.95,-0.87 -41.36,8.13 -9.48,9.02 -86.42,101.65 -111.17,129.96 -12.48,14.27 -21.82,46.85 15.72,60.74 30.8,11.21 84.6,24.92 101.31,29.55 22.14,6.15 33.91,18.45 35.34,36.2 z m -749.13,-167.54 c -55.97,-0.11 -108.8,-1.65 -126.94,-3.18 -6.16,-0.54 -10.99,-1.71 -14.66,0.27 -3.78,2.06 -1.05,9.25 4.38,14.85 4.81,4.95 27.42,23.27 41.81,26.63 14.77,3.35 60.53,8.11 82.56,9.38 6.22,0.34 86.36,7.49 93.75,7.13 7.29,-0.34 29.04,-32.81 50.63,-56.29 -2.5,-0.18 -72.31,1.35 -131.53,1.21 z m 141.53,-415.96 c -16.38,-31.39 -16.06,-44.41 -15.61,-73.49 0.47,-27.72 3.75,-61.88 1.95,-77.84 -1.75,-16.13 -12.05,-23 -28.14,-27.49 -16.08,-4.4 -111.27,-19.7 -132.34,-25.91 -21,-6.24 -25.81,-18.02 -29.33,-33.22 -3.59,-15.179 -4.58,-20.789 -5.45,-26.832 -0.75,-5.296 -0.63,-11.16 -6.85,-11.609 -5.93,-0.418 -27.64,-1.809 -34.47,-2.789 -6.93,-0.891 -7.87,0.57 -7.67,7.949 0.27,7.539 7.12,40.681 11.83,58.111 4.67,17.56 12.13,29.36 36.04,35.18 23.8,5.77 120.6,22.04 138.83,25.31 21.44,3.88 26.69,12.98 25.64,33.61 -1.02,21.57 -4.14,51.5 -4.7,69.94 -0.61,18.53 0.5,33.7 6.62,50.17 6.71,18.03 41.15,92.65 69.88,145.24 39.7,72.6 88.63,150.37 98.24,161.95 7.69,9.42 12.99,13.12 22.47,10.16 6.84,-2.16 25.11,-15.01 34.9,-22.17 7.88,-5.75 14.07,-10.35 14.07,-10.35 -66.23,-82.73 -164.35,-225.56 -195.91,-285.92 z m 868.34,-226.6 c -19.28,-14.26 -48.64,-47.842 -56.04,-59.209 -6.44,-9.742 -6.99,-10.043 -17.23,-9 -84.76,8.039 -194.8,8.168 -225.46,8.168 -5.66,0 -3.48,3.332 -4.16,5.883 -1.7,6.25 5.31,37.289 9.84,52.928 4.1,13.72 7.79,15.9 35.51,25.03 32.97,10.81 142.07,31.61 168.24,39.23 18.06,5.35 12.55,28.93 1.15,48.15 -255.7,429.66 -397.28,545.54 -728.12,725.58 -43.43,23.36 -215.41,116 -249.75,129.91 -32.55,13.16 -88.91,19.27 -105.37,20.4 -20.39,1.46 -44.92,-4.61 -45.59,3.94 -0.49,6.83 6.08,23.74 16.58,25.48 23.05,3.81 73.03,9.11 119.53,-2.69 20.98,-5.33 40.28,-13.84 63.62,-25.56 63.24,-31.72 146.8,-74.03 166.72,-84.08 29.41,-14.86 164.67,-84.2 201.37,-99.32 34.23,-13.99 48.55,-4.49 60.37,12.68 11.8,17.16 51.81,99.9 62.35,131.75 11.48,34.45 13.25,50.76 -4.05,84.34 -17.52,33.97 -75.41,112.24 -108.42,147.17 -21.69,22.9 -82.72,21.88 -139.53,9.71 -50.98,-10.87 -115.19,-35.74 -124.81,-39.52 -7.21,-2.9 -14.35,-5.96 -20.2,-5.79 -5.93,0 -17.64,21.29 -19.32,25.54 -4.29,10.11 -4.22,11.46 13.78,19.45 32.54,14.59 63.55,21.64 76.99,29.49 13.57,7.84 14.42,22.26 33.75,33.99 65.92,39.61 138.23,48.87 158.61,47.06 29.85,-2.57 175.92,-42.54 217.25,-68 2.98,-1.71 4.33,-2.59 6.08,-4.44 4.72,-4.5 5.43,-8.76 5.43,-8.76 3.96,-19.96 14.88,-45.9 38.96,-73.41 21.01,-23.97 58.99,-57.04 68.77,-63.9 11.09,-7.88 20.37,-19.4 23.24,-33.22 13.88,-66.56 20.16,-178.25 17.82,-201.28 -2.31,-21.28 -4.28,-30.2 -31.82,-37.75 -28.28,-7.92 -97.37,-22.22 -126.06,-31.32 -43.94,-13.91 -35.72,-47.49 -14.6,-77.33 21.54,-30.47 177.51,-213.89 269.51,-349.33 93.73,-137.65 162.15,-270.08 186.38,-331.11 1.35,-3.63 6.8,-14.84 -1.32,-20.86" /><path
         id="path18"
         style="fill:#231f20;fill-opacity:1;fill-rule:nonzero;stroke:none"
         d="M 328.961,576.07 V 336.559 h 65.965 v 73.679 h 59.054 c 126.7,0 191.247,40.641 191.247,85.621 0,48.25 -69.297,80.211 -185.489,80.211 z m 65.965,-139.98 v 113.242 h 51.875 c 53.605,0 124.344,-9.062 124.344,-53.473 0,-30.179 -22.95,-59.769 -132.922,-59.769 h -43.297" /><path
         id="path20"
         style="fill:#231f20;fill-opacity:1;fill-rule:nonzero;stroke:none"
         d="m 1021.32,336.559 v 30.152 H 858.766 c -34.899,0 -44.977,15.789 -44.977,42.559 v 35.082 H 1004.58 V 474.41 H 813.789 v 71.602 H 1013.19 V 576.07 H 747.832 V 407.832 c 0,-44.961 18.656,-71.273 79.375,-71.273 h 194.113" /><path
         id="path22"
         style="fill:#231f20;fill-opacity:1;fill-rule:nonzero;stroke:none"
         d="m 1443.41,576.07 h -65.95 V 373.91 c -18.18,-6.281 -42.53,-12 -77.94,-12 -50.67,0 -100.9,12.91 -100.9,57.41 v 156.75 h -65.94 V 414.539 c 0,-66.027 65.94,-85.578 138.62,-85.578 69.32,0 125.77,14.371 172.11,33.91 V 576.07" /><path
         id="path24"
         style="fill:#231f20;fill-opacity:1;fill-rule:nonzero;stroke:none"
         d="m 1626.81,455.641 c 0,66.449 56.45,97.597 125.26,97.597 56.39,0 99.93,-16.289 141.06,-30.218 v 40.191 c -43.52,12.859 -84.67,20.09 -141.06,20.09 -110.4,0 -200.31,-50.672 -200.31,-127.66 0,-81.332 89.91,-126.68 200.31,-126.68 55.02,0 112.84,11.41 148.25,20.469 v 94.922 h -65.01 v -70.973 c -23.92,-8.109 -41.15,-14.359 -78.43,-14.359 -75.06,0 -130.07,37.269 -130.07,96.621" /><path
         id="path26"
         style="fill:#231f20;fill-opacity:1;fill-rule:nonzero;stroke:none"
         d="m 2293.99,336.559 v 30.152 h -162.6 c -34.87,0 -44.92,15.789 -44.92,42.559 v 35.082 h 190.8 v 30.058 h -190.8 v 71.602 h 199.38 V 576.07 H 2020.51 V 407.832 c 0,-44.961 18.62,-71.273 79.36,-71.273 h 194.12" /><path
         id="path28"
         style="fill:#231f20;fill-opacity:1;fill-rule:nonzero;stroke:none"
         d="m 2580.2,583.301 c -110.39,0 -200.76,-51.641 -200.76,-128.91 0,-81.012 90.37,-125.43 200.76,-125.43 110.47,0 200.34,44.418 200.34,125.43 0,77.269 -89.87,128.91 -200.34,128.91 m 0,-227.602 c -75.06,0 -125.71,38.711 -125.71,98.692 0,65.808 56.41,98.847 125.71,98.847 68.87,0 125.26,-33.039 125.26,-98.847 0,-59.981 -50.69,-98.692 -125.26,-98.692" /><path
         id="path30"
         style="fill:#231f20;fill-opacity:1;fill-rule:nonzero;stroke:none"
         d="m 2834.66,541.719 h 131.5 v -205.16 h 65.97 v 205.16 h 131.49 v 34.351 h -328.96 v -34.351" /></g></g></svg>