<?xml version="1.0" encoding="iso-8859-1"?>
<!-- Generator: Adobe Illustrator 19.0.0, SVG Export Plug-In . SVG Version: 6.00 Build 0)  -->
<svg version="1.1" id="Capa_1" xmlns="http://www.w3.org/2000/svg" xmlns:xlink="http://www.w3.org/1999/xlink" x="0px" y="0px"
	 viewBox="0 0 512 512" style="enable-background:new 0 0 512 512;" xml:space="preserve">
<g>
	<g>
		<g>
			<path d="M298.667,309.333c0-5.896-4.771-10.667-10.667-10.667s-10.667,4.771-10.667,10.667c0,19.229,6.906,29.594,12.458,37.917
				c4.958,7.438,8.875,13.313,8.875,26.083c0,5.896,4.771,10.667,10.667,10.667c5.896,0,10.667-4.771,10.667-10.667
				c0-19.229-6.906-29.594-12.458-37.917C302.583,327.979,298.667,322.104,298.667,309.333z"/>
			<path d="M117.333,298.667c-5.896,0-10.667,4.771-10.667,10.667c0,12.771-3.917,18.646-8.875,26.083
				c-5.552,8.323-12.458,18.688-12.458,37.917C85.333,379.229,90.104,384,96,384s10.667-4.771,10.667-10.667
				c0-12.771,3.917-18.646,8.875-26.083c5.552-8.323,12.458-18.688,12.458-37.917C128,303.438,123.229,298.667,117.333,298.667z"/>
			<path d="M202.667,298.667c-5.896,0-10.667,4.771-10.667,10.667v64c0,5.896,4.771,10.667,10.667,10.667
				c5.896,0,10.667-4.771,10.667-10.667v-64C213.333,303.438,208.563,298.667,202.667,298.667z"/>
			<path d="M42.667,224v-42.667c0-5.896,4.771-10.667,10.667-10.667h320c5.896,0,10.667,4.771,10.667,10.667v32h42.667v-128
				c0-23.531-19.135-42.667-42.667-42.667H42.667C19.135,42.667,0,61.802,0,85.333v149.333c0,23.531,19.135,42.667,42.667,42.667
				H320c0-16.451,6.411-31.318,16.646-42.667H53.333C47.438,234.667,42.667,229.896,42.667,224z M362.667,85.333
				c11.76,0,21.333,9.573,21.333,21.333c0,11.76-9.573,21.333-21.333,21.333s-21.333-9.573-21.333-21.333
				C341.333,94.906,350.906,85.333,362.667,85.333z M53.333,106.667H288c5.896,0,10.667,4.771,10.667,10.667
				c0,5.896-4.771,10.667-10.667,10.667H53.333c-5.896,0-10.667-4.771-10.667-10.667C42.667,111.438,47.438,106.667,53.333,106.667z
				"/>
			<path d="M469.333,234.667H384c-23.531,0-42.667,19.135-42.667,42.667V384c0,47.052,38.281,85.333,85.333,85.333
				S512,431.052,512,384V277.333C512,253.802,492.865,234.667,469.333,234.667z M448,405.333h-42.667
				c-5.896,0-10.667-4.771-10.667-10.667S399.438,384,405.333,384H448c5.896,0,10.667,4.771,10.667,10.667
				S453.896,405.333,448,405.333z M448,320h-10.667v10.667c0,5.896-4.771,10.667-10.667,10.667S416,336.563,416,330.667V320h-10.667
				c-5.896,0-10.667-4.771-10.667-10.667c0-5.896,4.771-10.667,10.667-10.667H416V288c0-5.896,4.771-10.667,10.667-10.667
				s10.667,4.771,10.667,10.667v10.667H448c5.896,0,10.667,4.771,10.667,10.667C458.667,315.229,453.896,320,448,320z"/>
		</g>
	</g>
</g>
<g>
</g>
<g>
</g>
<g>
</g>
<g>
</g>
<g>
</g>
<g>
</g>
<g>
</g>
<g>
</g>
<g>
</g>
<g>
</g>
<g>
</g>
<g>
</g>
<g>
</g>
<g>
</g>
<g>
</g>
</svg>
