<?xml version="1.0" encoding="iso-8859-1"?>
<!-- Generator: Adobe Illustrator 19.0.0, SVG Export Plug-In . SVG Version: 6.00 Build 0)  -->
<svg version="1.1" id="Capa_1" xmlns="http://www.w3.org/2000/svg" xmlns:xlink="http://www.w3.org/1999/xlink" x="0px" y="0px"
	 viewBox="0 0 489.207 489.207" style="enable-background:new 0 0 489.207 489.207;" xml:space="preserve">
<g>
	<g>
		<path d="M288.154,58.607c1.3,3.8,4.9,6.4,9.1,6.4h9.3c4.3,0,7.8-2.6,9.1-6.4c1.3,3.8,4.9,6.4,9.1,6.4h9.3c4.3,0,7.8-2.6,9.1-6.4
			c1.3,3.8,4.9,6.4,9.1,6.4h9.3c5.4,0,9.7-4.3,9.7-9.7s-4.3-9.7-9.7-9.7h-9.3c-4.3,0-7.8,2.6-9.1,6.4c-1.3-3.8-4.9-6.4-9.1-6.4h-9.3
			c-4.3,0-7.8,2.6-9.1,6.4c-1.3-3.8-4.9-6.4-9.1-6.4h-9.3c-4.3,0-7.8,2.6-9.1,6.4c-1.3-3.8-4.9-6.4-9.1-6.4h-0.3l2.5-0.8
			c4-1.3,6.6-5,6.7-8.9c2.5,3.1,6.6,4.5,10.7,3.2l8.9-2.9c4-1.3,6.6-5,6.7-8.9c2.5,3.1,6.6,4.5,10.7,3.2l8.9-2.9
			c4-1.3,6.6-5,6.7-8.9c2.5,3.1,6.6,4.5,10.7,3.2l8.9-2.9c5.2-1.7,7.9-7.1,6.2-12.3c-1.7-5.2-7.1-7.9-12.3-6.2l-8.9,2.9
			c-4,1.3-6.6,5-6.7,8.9c-2.5-3.1-6.6-4.5-10.7-3.2l-8.9,2.9c-4,1.3-6.6,5-6.7,8.9c-2.5-3.1-6.6-4.5-10.7-3.2l-8.9,2.9
			c-4,1.3-6.6,5-6.7,8.9c-2.5-3.1-6.6-4.5-10.7-3.2l-8.9,2.9c-5.2,1.7-7.9,7.1-6.2,12.3c0.8,2.4,2.4,4.3,4.5,5.4
			c-2.8,1.7-4.7,4.8-4.7,8.3c0,3.6,1.9,6.8,4.8,8.4c-2.1,1.1-3.7,3-4.5,5.5c-1.7,5.2,1,10.6,6.2,12.3l8.9,2.9c4,1.3,8.2,0,10.7-3.2
			c0.1,4,2.6,7.6,6.7,8.9l8.9,2.9c4,1.3,8.2,0,10.7-3.2c0.1,4,2.6,7.6,6.7,8.9l8.9,2.9c4,1.3,8.2,0,10.7-3.2c0.1,4,2.6,7.6,6.7,8.9
			l8.9,2.9c5.2,1.7,10.6-1,12.3-6.2c1.7-5.2-1-10.6-6.2-12.3l-8.9-2.9c-4-1.3-8.2,0-10.7,3.2c-0.1-4-2.6-7.6-6.7-8.9l-8.9-2.9
			c-4-1.3-8.2,0-10.7,3.2c-0.1-4-2.6-7.6-6.7-8.9l-8.9-2.9c-4-1.3-8.2,0-10.7,3.2c-0.1-4-2.6-7.6-6.7-8.9l-2.9-1h0.5
			C283.254,65.007,286.754,62.307,288.154,58.607z"/>
		<path d="M117.954,471.707c0,9.7,7.8,17.5,17.5,17.5h177.7c9.7,0,17.5-7.8,17.5-17.5v-258.6h-212.7V471.707z"/>
		<path d="M249.454,99.107v-34.5c-4.7-0.8-7.8-4.7-7.8-9.7c0-4.7,3.5-8.9,7.8-9.7v-10.6h-50.2v64.5h-26.8l-54.4,94.9h212.7
			l-54.4-94.9C276.354,99.107,249.454,99.107,249.454,99.107z"/>
	</g>
</g>
<g>
</g>
<g>
</g>
<g>
</g>
<g>
</g>
<g>
</g>
<g>
</g>
<g>
</g>
<g>
</g>
<g>
</g>
<g>
</g>
<g>
</g>
<g>
</g>
<g>
</g>
<g>
</g>
<g>
</g>
</svg>
