<?xml version="1.0" encoding="iso-8859-1"?>
<!-- Generator: Adobe Illustrator 17.1.0, SVG Export Plug-In . SVG Version: 6.00 Build 0)  -->
<!DOCTYPE svg PUBLIC "-//W3C//DTD SVG 1.1//EN" "http://www.w3.org/Graphics/SVG/1.1/DTD/svg11.dtd">
<svg version="1.1" id="Capa_1" xmlns="http://www.w3.org/2000/svg" xmlns:xlink="http://www.w3.org/1999/xlink" x="0px" y="0px"
	 viewBox="0 0 258.676 258.676" style="enable-background:new 0 0 258.676 258.676;" xml:space="preserve">
<g>
	<path d="M249.191,71.976c-0.997,0-2.021,0.143-3.045,0.424l-11.033,3.038l-11.616-28.295c-3.358-8.181-13.285-14.835-22.128-14.835
		H91.76c-8.843,0-18.77,6.654-22.128,14.835L58.032,75.4l-10.892-3c-1.023-0.281-2.048-0.424-3.045-0.424
		c-5.496,0-9.484,4.192-9.484,9.969v6.65c0,0.222,0.014,0.439,0.029,0.657c-4.677,2.963-9.01,6.427-12.883,10.298
		C7.727,113.582,0,132.237,0,152.08c0,19.844,7.727,38.498,21.758,52.529c14.032,14.031,32.688,21.759,52.53,21.759
		c19.843,0,38.498-7.727,52.53-21.759c8.097-8.098,14.066-17.645,17.744-28.382h68.445v13.868c0,6.707,5.456,12.163,12.163,12.163
		h15.512c6.707,0,12.163-5.456,12.163-12.163v-56.68c0-8.15-2.518-20.912-5.611-28.448l-1.729-4.21h1.007
		c6.707,0,12.163-5.456,12.163-12.163v-6.65C258.676,76.168,254.688,71.976,249.191,71.976z M186.83,132.453
		c0-2.462,2.003-4.465,4.465-4.465h33.654c2.462,0,4.465,2.003,4.465,4.465v16.152c0,2.462-2.003,4.465-4.465,4.465h-33.654
		c-2.462,0-4.465-2.003-4.465-4.465V132.453z M74.288,203.646c-13.771,0-26.721-5.364-36.462-15.105
		c-9.739-9.737-15.103-22.687-15.103-36.461c0-13.773,5.364-26.723,15.103-36.462c9.739-9.739,22.688-15.104,36.462-15.104
		c13.773,0,26.723,5.364,36.462,15.103c9.739,9.74,15.104,22.689,15.104,36.463c0,13.774-5.364,26.724-15.103,36.461
		C101.009,198.282,88.06,203.646,74.288,203.646z M73.686,77.804l11.013-26.829c1.949-4.748,7.712-8.612,12.846-8.612h98.041
		c5.134,0,10.896,3.864,12.846,8.612l17.717,43.154c0.922,2.247,0.845,4.357-0.217,5.94c-1.062,1.583-2.983,2.455-5.412,2.455
		h-90.896c-0.999-1.114-1.917-2.089-2.804-2.976c-14.033-14.031-32.688-21.758-52.53-21.758c-0.2,0-0.398,0.006-0.598,0.013
		C73.69,77.804,73.688,77.804,73.686,77.804z"/>
	<path d="M96.889,116.433c-0.59,0-1.202,0.09-1.825,0.269l-28.747,8.792c-3.592,1.028-6.514,4.792-6.514,8.39v29.856
		c-0.637-0.287-1.964-0.733-4.068-0.733c-0.764,0-1.574,0.06-2.408,0.178c-6.944,0.977-12.594,6.344-12.594,11.962
		c0,4.91,4.248,8.34,10.33,8.34c0.767,0,1.555-0.057,2.344-0.169c6.877-0.971,12.062-6.048,12.062-11.811v-25.895
		c0-2.205,2.701-3.196,2.718-3.202l25.432-7.978c0.005-0.002,0.459-0.149,0.975-0.149c0.987,0,1.468,0.506,1.468,1.547v20.346
		c-0.739-0.318-2.412-0.89-4.917-0.89c-0.674,0-1.371,0.043-2.072,0.127c-6.939,0.849-12.585,6.106-12.585,11.721
		c0,4.952,4.481,8.546,10.656,8.546c0.655,0,1.327-0.041,1.999-0.122c6.947-0.85,12.599-6.108,12.599-11.722v-42.351
		C101.74,118.51,99.745,116.433,96.889,116.433z"/>
</g>
<g>
</g>
<g>
</g>
<g>
</g>
<g>
</g>
<g>
</g>
<g>
</g>
<g>
</g>
<g>
</g>
<g>
</g>
<g>
</g>
<g>
</g>
<g>
</g>
<g>
</g>
<g>
</g>
<g>
</g>
</svg>
