<?xml version="1.0" encoding="iso-8859-1"?>
<!-- Generator: Adobe Illustrator 19.0.0, SVG Export Plug-In . SVG Version: 6.00 Build 0)  -->
<svg version="1.1" id="Capa_1" xmlns="http://www.w3.org/2000/svg" xmlns:xlink="http://www.w3.org/1999/xlink" x="0px" y="0px"
	 viewBox="0 0 490 490" style="enable-background:new 0 0 490 490;" xml:space="preserve">
<g>
	<path d="M328.25,0H49.45v490h391.1V112.4L328.25,0z M383.45,418.4h-276.8c-5.4,0-10.1-4.3-10.1-10.1c0-5.4,4.3-10.1,10.1-10.1
		h276.4c5.4,0,10.1,4.3,10.1,10.1S388.95,418.4,383.45,418.4z M383.45,332.9h-276.8c-5.4,0-10.1-4.3-10.1-10.1
		c0-5.4,4.3-10.1,10.1-10.1h276.4c5.4,0,10.1,4.3,10.1,10.1C393.15,328.2,388.95,332.9,383.45,332.9z M383.45,232.9h-59.1
		l-12.7,15.4c-5,6.1-14.9,4.3-17.3-3.3l-19.8-60.3l-24.9,92.5c-4.7,11.3-16.5,8.4-19.1,0.4l-20.2-64.9c0,0-9.1,20.6-18.7,20.6h-85.1
		c-5.4,0-10.1-4.3-10.1-10.1c0-5.4,4.3-10.1,10.1-10.1h79.7l19-29.1c4.6-7.1,15.4-5.6,17.9,2.5l16.4,52.3l24.6-91.8
		c5.1-12.9,18.1-6,19.1-0.4l24.9,75c0,0,7.5-11.4,12.1-8.6h63.4c5.4,0,10.1,4.3,10.1,10.1S388.95,232.9,383.45,232.9z M308.05,132.2
		V19.9l112.8,112.4h-112.8V132.2z"/>
</g>
<g>
</g>
<g>
</g>
<g>
</g>
<g>
</g>
<g>
</g>
<g>
</g>
<g>
</g>
<g>
</g>
<g>
</g>
<g>
</g>
<g>
</g>
<g>
</g>
<g>
</g>
<g>
</g>
<g>
</g>
</svg>
