<?xml version="1.0" encoding="iso-8859-1"?>
<!-- Generator: Adobe Illustrator 17.1.0, SVG Export Plug-In . SVG Version: 6.00 Build 0)  -->
<!DOCTYPE svg PUBLIC "-//W3C//DTD SVG 1.1//EN" "http://www.w3.org/Graphics/SVG/1.1/DTD/svg11.dtd">
<svg version="1.1" id="Capa_1" xmlns="http://www.w3.org/2000/svg" xmlns:xlink="http://www.w3.org/1999/xlink" x="0px" y="0px"
	 viewBox="0 0 199.102 199.102" style="enable-background:new 0 0 199.102 199.102;" xml:space="preserve">
<path d="M146.991,46.424c1.467,8.078,8.646,12.973,19.492,12.973c12.204,0,19.785-6.187,19.785-16.145V16.144
	C186.268,6.186,178.687,0,166.483,0c-10.846,0-18.026,4.894-19.492,12.973c-5.561,0.709-8.923,4.029-8.923,9.025v1.392h-24.211
	c-2.796-5.026-8.157-8.438-14.306-8.438s-11.51,3.411-14.306,8.438h-24.21v-1.392c0-4.996-3.363-8.317-8.923-9.025
	C50.645,4.894,43.465,0,32.619,0C20.415,0,12.834,6.186,12.834,16.144v27.108c0,9.958,7.581,16.145,19.784,16.145
	c10.846,0,18.026-4.895,19.493-12.973c5.561-0.709,8.923-4.029,8.923-9.025v-1.392h22.844c1.411,4.705,4.88,8.527,9.364,10.407
	v91.148c-4.184,2.255-7.036,6.677-7.036,11.754v7.708c0,0.131,0.016,0.258,0.02,0.388c-1.203,1.688-2.088,3.609-2.582,5.686h-22.61
	v-1.393c0-4.996-3.363-8.315-8.923-9.024c-1.466-8.078-8.646-12.973-19.493-12.973c-12.204,0-19.784,6.186-19.784,16.144v27.108
	c0,9.958,7.581,16.143,19.784,16.143c10.846,0,18.026-4.895,19.493-12.973c5.561-0.709,8.923-4.028,8.923-9.024v-1.394h24.762
	c2.915,4.523,7.985,7.53,13.754,7.53s10.839-3.008,13.754-7.53h24.763v1.394c0,4.996,3.363,8.315,8.923,9.024
	c1.466,8.078,8.646,12.973,19.492,12.973c12.204,0,19.785-6.185,19.785-16.143v-27.108c0-9.958-7.581-16.144-19.785-16.144
	c-10.846,0-18.026,4.895-19.492,12.973c-5.561,0.709-8.923,4.028-8.923,9.024v1.393h-22.612c-0.494-2.076-1.379-3.997-2.581-5.685
	c0.003-0.13,0.02-0.257,0.02-0.389v-7.708c0-5.077-2.852-9.499-7.036-11.754V46.413c4.483-1.88,7.953-5.702,9.364-10.407h22.846
	v1.392C138.068,42.395,141.431,45.715,146.991,46.424z"/>
<g>
</g>
<g>
</g>
<g>
</g>
<g>
</g>
<g>
</g>
<g>
</g>
<g>
</g>
<g>
</g>
<g>
</g>
<g>
</g>
<g>
</g>
<g>
</g>
<g>
</g>
<g>
</g>
<g>
</g>
</svg>
