<?xml version="1.0" encoding="iso-8859-1"?>
<!-- Generator: Adobe Illustrator 18.0.0, SVG Export Plug-In . SVG Version: 6.00 Build 0)  -->
<!DOCTYPE svg PUBLIC "-//W3C//DTD SVG 1.1//EN" "http://www.w3.org/Graphics/SVG/1.1/DTD/svg11.dtd">
<svg version="1.1" id="Capa_1" xmlns="http://www.w3.org/2000/svg" xmlns:xlink="http://www.w3.org/1999/xlink" x="0px" y="0px"
	 viewBox="0 0 476.281 476.281" style="enable-background:new 0 0 476.281 476.281;" xml:space="preserve">
<g>
	<path d="M249.581,429.674l-38.652,13.084c-8.449,2.858-17.626-1.67-20.484-10.117l-2.066-6.089l5.015-1.692v-0.008l30.624-10.351
		c10.747-3.634,9.193-36.928-3.464-74.362c-5.388-15.972-24.085-61.086-40.485-61.521c-0.62-0.016-1.242,0.07-1.816,0.272
		l-0.094,0.03c-0.014,0-0.014,0.016-0.014,0.016l-19.6,6.623c-6.071,2.058-12.656-1.204-14.706-7.275l-32.052-94.761
		c-2.05-6.072,1.212-12.657,7.283-14.714l19.614-6.631h0.016v-0.006c0.016,0,0.016,0,0.016,0
		c10.745-3.673,9.177-36.945-3.479-74.371c-5.435-16.112-26.633-66.566-42.379-61.209c0,0,0,0.008-0.016,0.008L42.155,43.736v0.008
		l-33.9,11.461c-18.714,6.32-4.535,98.286,31.679,205.416c36.216,107.114,80.754,188.814,99.466,182.487l18.854-6.367l1.972,5.839
		c5.575,16.522,19.722,28.775,36.868,31.913c1.258,0.232,2.516,0.412,3.758,0.544c6.987,0.76,13.93-0.016,20.592-2.268
		l38.342-12.975c8.325-2.811,12.782-11.819,9.987-20.134c-2.811-8.317-11.818-12.797-20.142-10.001L249.581,429.674z
		 M120.174,92.895c5.979,17.712,8.697,32.386,9.537,42.643c-5.575-8.657-12.331-21.966-18.31-39.677
		c-5.995-17.71-8.713-32.386-9.535-42.643C107.425,61.866,114.18,75.175,120.174,92.895z M205.494,345.233
		c5.993,17.71,8.697,32.394,9.519,42.651c-5.559-8.657-12.315-21.966-18.31-39.685c-5.993-17.72-8.695-32.41-9.519-42.667
		C192.743,314.189,199.499,327.498,205.494,345.233z"/>
	<path d="M327.664,0.961c-82.073,0-148.617,50.066-148.617,111.803c0,37.869,25.095,71.288,63.375,91.507
		c-5.062,13.704-13.339,31.44-25.451,43.987c-2.827,2.928-3.572,7.283-1.895,10.987c1.678,3.705,5.451,6.011,9.521,5.809
		c29.087-1.422,70.176-9.637,101.717-40.533c0.452,0.008,0.886,0.056,1.352,0.056c82.073,0,148.617-50.06,148.617-111.813
		C476.281,51.028,409.736,0.961,327.664,0.961z M321.747,167.972c-8.695,0-15.746-7.051-15.746-15.738
		c0-20.787,31.478-20.833,31.478,0C337.479,160.921,330.427,167.972,321.747,167.972z M343.208,103.3
		c-7.795,8.673-9.487,15.35-9.487,24.109c-7.875-3.82-16.602-3.93-24.925,0.52c-0.388-11.615,0.822-20.002,10.917-32.091
		c5.963-7.097,10.825-13.068,10.825-19.412c0-6.531-4.302-10.825-13.636-11.197c-2.81,0-5.885,0.466-8.867,1.296
		c-5.605,1.554-11.445-1.622-13.184-7.183c-1.692-5.442,1.274-11.235,6.677-13.045c6.057-2.026,13.496-3.462,21.727-3.462
		c24.629,0,35.826,13.619,35.826,29.109C359.08,86.132,350.305,95.465,343.208,103.3z"/>
</g>
<g>
</g>
<g>
</g>
<g>
</g>
<g>
</g>
<g>
</g>
<g>
</g>
<g>
</g>
<g>
</g>
<g>
</g>
<g>
</g>
<g>
</g>
<g>
</g>
<g>
</g>
<g>
</g>
<g>
</g>
</svg>
