<?xml version="1.0" encoding="iso-8859-1"?>
<!-- Generator: Adobe Illustrator 16.0.0, SVG Export Plug-In . SVG Version: 6.00 Build 0)  -->
<!DOCTYPE svg PUBLIC "-//W3C//DTD SVG 1.1//EN" "http://www.w3.org/Graphics/SVG/1.1/DTD/svg11.dtd">
<svg xmlns="http://www.w3.org/2000/svg" xmlns:xlink="http://www.w3.org/1999/xlink" version="1.1" id="Capa_1" x="0px" y="0px" width="512px" height="512px" viewBox="0 0 938.692 938.692" style="enable-background:new 0 0 938.692 938.692;" xml:space="preserve">
<g>
	<g>
		<path d="M689.212,37.158C686.63,16.636,669.09,0,650.035,0H512.818c0.003,0.057,0.011,0.113,0.012,0.17l3.607,175.708    c0.104,5.087-4.073,9.211-9.334,9.211h-72.896c-5.259,0-9.399-4.124-9.246-9.211L430.247,0.17c0.002-0.057,0.01-0.113,0.013-0.17    H295.782c-19.055,0-36.727,16.636-39.469,37.158L140.768,901.534c-2.743,20.521,19.369,37.158,49.39,37.158H402.48    c-0.273-0.76-0.424-1.553-0.398-2.376l5.525-183.663c0.153-5.087,5.853-9.211,12.729-9.211h95.306    c6.876,0,12.535,4.124,12.641,9.211l3.771,183.663c0.018,0.823-0.14,1.617-0.422,2.376h216.636    c30.021,0,52.265-16.638,49.684-37.158L689.212,37.158z M422.657,252.468c0.152-5.087,4.677-9.211,10.104-9.211h75.231    c5.428,0,9.913,4.124,10.017,9.211l3.608,175.708c0.104,5.087-4.667,9.211-10.657,9.211h-83.023    c-5.989,0-10.722-4.124-10.568-9.211L422.657,252.468z M514.787,687.48h-93.061c-6.714,0-12.032-4.124-11.88-9.211l5.286-175.708    c0.153-5.088,5.264-9.211,11.417-9.211h85.269c6.152,0,11.225,4.123,11.328,9.211l3.608,175.708    C526.859,683.356,521.501,687.48,514.787,687.48z" fill="#cc6119"/>
	</g>
</g>
<g>
</g>
<g>
</g>
<g>
</g>
<g>
</g>
<g>
</g>
<g>
</g>
<g>
</g>
<g>
</g>
<g>
</g>
<g>
</g>
<g>
</g>
<g>
</g>
<g>
</g>
<g>
</g>
<g>
</g>
</svg>
