<?xml version="1.0" encoding="UTF-8"?>
<!DOCTYPE svg PUBLIC "-//W3C//DTD SVG 1.1//EN" "http://www.w3.org/Graphics/SVG/1.1/DTD/svg11.dtd">
<!-- Creator: CorelDRAW 2020 (64 Bit) -->
<svg xmlns="http://www.w3.org/2000/svg" xml:space="preserve" width="20.844mm" height="20.8438mm" version="1.1" style="shape-rendering:geometricPrecision; text-rendering:geometricPrecision; image-rendering:optimizeQuality; fill-rule:evenodd; clip-rule:evenodd"
viewBox="0 0 514.19 514.18"
 xmlns:xlink="http://www.w3.org/1999/xlink"
 xmlns:xodm="http://www.corel.com/coreldraw/odm/2003">
 <defs>
  <style type="text/css">
   <![CDATA[
    .fil0 {fill:#CC6119}
    .fil1 {fill:#FFFFFE}
   ]]>
  </style>
 </defs>
 <g id="Camada_x0020_1">
  <metadata id="CorelCorpID_0Corel-Layer"/>
  <path class="fil0" d="M89.13 271.07l33.8 1.65c9.03,-7.76 5.43,-15.05 22.26,-21.11 13.09,-4.72 25.8,-2.18 34.45,4.69 12.88,10.22 5.39,15.91 27.11,17.23 12.18,0.74 30.77,2.33 35.59,-9.18 16.04,-38.28 -33.71,-121.83 58.9,-111.77 54.46,5.92 72.87,29.48 91.49,39.27 27.15,14.27 68.55,-3.06 62.3,68.83 -3.34,38.46 -10.66,40.26 -48.24,39.7 -3.77,12.4 -14.9,23.2 -33.18,23.35 -23.69,0.2 -25.72,-12.99 -36.17,-23.22l-61.8 -0.08c0.89,-6.42 8.41,-16.17 11.73,-27.2 13.1,-0.8 34.6,1.1 45.9,-0.57 12.4,-1.84 27.55,-39.91 61.29,-16.4 14.87,10.36 3.66,18.47 30.52,15.92 5.3,-17.1 8.14,-41.46 -10.44,-46.03 -23.68,-5.82 -27.46,-3.62 -45.53,-16.85 -49.01,-35.88 -87.69,-29.13 -91.08,-28.06 -0.45,0.14 -1.11,0.53 -1.46,0.66 -15.69,5.89 1.3,56.41 -8.91,91.87 -9.37,32.53 -41.31,25.2 -75.22,27.13 -10.59,22.13 -34.08,29.72 -55.46,16.02 -8.72,-5.59 -8.23,-9.8 -14.44,-16.31 -31.4,-0.49 -62.08,4.44 -63.31,-31.38 -1,-29.25 18.95,-52.13 36.72,-60.74 27.24,-13.2 34.87,1.29 72.38,-21.97 17.99,-11.15 40.55,-26.83 66.13,-29.75 -3.96,8.13 -5.19,12.65 -7.87,23.5 -2.85,11.52 -9.14,9.65 -19.3,14.9 -14.85,7.68 -25.84,17.46 -41.54,24.79 -19.03,8.89 -35.82,5.43 -54.3,11.93 -13.5,4.75 -24.2,20.31 -24.37,31.85 -0.19,12.47 -0.88,3.52 2.06,7.33zm-89.13 -5.95c0,44.25 12.8,66.36 45.03,91.54l101.87 84.92c5.46,4.42 10.89,9.01 16.3,13.82 27.8,24.75 63.07,58.76 97.9,58.76 67.84,0 72.24,-20.34 110,-62.73 30.5,-34.24 70.59,-86.64 98.38,-116.53 18.99,-20.42 44.69,-51.77 44.69,-79.83 0,-50.2 -6.97,-64.92 -47.58,-99.04l-67.78 -56.75c-6.92,-5.38 -9.41,-8.36 -16.35,-13.78l-51.54 -42.86c-30.28,-27.06 -45.3,-42.65 -91.92,-42.65 -60.21,0 -87.73,58 -123.03,95.9l-86.32 102.48c-15.16,18.6 -29.67,35.58 -29.67,66.74z"/>
  <path class="fil1" d="M363.79 262.59c32.94,-13.43 50.71,36.74 19.03,48.07 -33.62,12.03 -51.69,-34.76 -19.03,-48.07zm-211.04 -0.21c36.26,-7.37 42.42,41.2 12.66,49.67 -33.33,9.49 -49.59,-42.17 -12.66,-49.67zm-63.62 8.7c-2.94,-3.8 -2.24,5.15 -2.06,-7.33 0.17,-11.55 10.87,-27.1 24.37,-31.85 18.48,-6.5 35.28,-3.04 54.3,-11.93 15.7,-7.33 26.69,-17.11 41.54,-24.79 10.16,-5.25 16.44,-3.38 19.3,-14.9 2.69,-10.85 3.91,-15.38 7.87,-23.5 -25.58,2.92 -48.14,18.59 -66.13,29.75 -37.52,23.26 -45.14,8.77 -72.38,21.97 -17.77,8.62 -37.72,31.49 -36.72,60.74 1.22,35.81 31.9,30.88 63.31,31.38 6.21,6.51 5.72,10.72 14.44,16.31 21.38,13.7 44.87,6.11 55.46,-16.02 33.91,-1.93 65.85,5.39 75.22,-27.13 10.21,-35.45 -6.78,-85.97 8.91,-91.87 0.35,-0.13 1.01,-0.51 1.46,-0.66 3.39,-1.08 42.08,-7.82 91.08,28.06 18.07,13.23 21.85,11.03 45.53,16.85 18.58,4.57 15.74,28.93 10.44,46.03 -26.87,2.55 -15.65,-5.56 -30.52,-15.92 -33.74,-23.51 -48.89,14.56 -61.29,16.4 -11.3,1.67 -32.79,-0.22 -45.9,0.57 -3.32,11.04 -10.84,20.78 -11.73,27.2l61.8 0.08c10.46,10.23 12.48,23.42 36.17,23.22 18.28,-0.16 29.41,-10.95 33.18,-23.35 37.59,0.55 44.9,-1.25 48.24,-39.7 6.25,-71.89 -35.15,-54.56 -62.3,-68.83 -18.62,-9.79 -37.03,-33.35 -91.49,-39.27 -92.61,-10.06 -42.86,73.49 -58.9,111.77 -4.82,11.51 -23.41,9.92 -35.59,9.18 -21.72,-1.32 -14.23,-7.01 -27.11,-17.23 -8.65,-6.87 -21.36,-9.41 -34.45,-4.69 -16.83,6.06 -13.23,13.35 -22.26,21.11l-33.8 -1.65z"/>
  <path class="fil0" d="M363.79 262.59c-32.67,13.32 -14.6,60.1 19.03,48.07 31.69,-11.34 13.91,-61.5 -19.03,-48.07z"/>
  <path class="fil0" d="M152.75 262.37c-36.93,7.5 -20.67,59.16 12.66,49.67 29.76,-8.47 23.6,-57.04 -12.66,-49.67z"/>
 </g>
</svg>
