<?xml version="1.0" encoding="UTF-8"?>
<!DOCTYPE svg PUBLIC "-//W3C//DTD SVG 1.1//EN" "http://www.w3.org/Graphics/SVG/1.1/DTD/svg11.dtd">
<!-- Creator: CorelDRAW 2020 (64 Bit) -->
<svg xmlns="http://www.w3.org/2000/svg" xml:space="preserve" width="21.9024mm" height="21.9022mm" version="1.1" style="shape-rendering:geometricPrecision; text-rendering:geometricPrecision; image-rendering:optimizeQuality; fill-rule:evenodd; clip-rule:evenodd"
viewBox="0 0 560.71 560.7"
 xmlns:xlink="http://www.w3.org/1999/xlink"
 xmlns:xodm="http://www.corel.com/coreldraw/odm/2003">
 <defs>
  <style type="text/css">
   <![CDATA[
    .str0 {stroke:#343A40;stroke-width:27.09;stroke-linejoin:round;stroke-miterlimit:22.9256}
    .str1 {stroke:white;stroke-width:5.12;stroke-linecap:round;stroke-linejoin:round;stroke-miterlimit:22.9256}
    .fil2 {fill:#343A40}
    .fil0 {fill:white}
    .fil1 {fill:white}
   ]]>
  </style>
 </defs>
 <g id="Camada_x0020_1">
  <metadata id="CorelCorpID_0Corel-Layer"/>
  <path class="fil0 str0" d="M106.04 294.86l35.08 1.71c9.37,-8.06 5.64,-15.62 23.1,-21.91 13.59,-4.89 26.77,-2.26 35.75,4.87 13.37,10.61 5.6,16.51 28.13,17.88 12.64,0.77 31.93,2.42 36.93,-9.53 16.65,-39.73 -34.98,-126.43 61.13,-115.99 56.52,6.14 75.62,30.6 94.94,40.75 28.17,14.81 71.14,-3.17 64.66,71.43 -3.47,39.91 -11.06,41.78 -50.07,41.2 -3.91,12.87 -15.47,24.07 -34.43,24.23 -24.59,0.21 -26.69,-13.48 -37.54,-24.1l-64.14 -0.08c0.92,-6.66 8.73,-16.78 12.17,-28.23 13.6,-0.83 35.9,1.14 47.63,-0.6 12.87,-1.91 28.59,-41.42 63.61,-17.02 15.43,10.75 3.8,19.17 31.68,16.52 5.5,-17.75 8.44,-43.03 -10.84,-47.77 -24.57,-6.04 -28.5,-3.76 -47.25,-17.48 -50.86,-37.23 -91.01,-30.23 -94.52,-29.12 -0.46,0.15 -1.15,0.55 -1.52,0.68 -16.28,6.12 1.35,58.55 -9.25,95.34 -9.72,33.76 -42.87,26.15 -78.06,28.16 -10.99,22.96 -35.37,30.84 -57.55,16.62 -9.05,-5.8 -8.54,-10.17 -14.99,-16.92 -32.59,-0.51 -64.43,4.6 -65.7,-32.56 -1.03,-30.36 19.66,-54.1 38.11,-63.04 28.27,-13.7 36.18,1.34 75.12,-22.8 18.67,-11.58 42.08,-27.84 68.63,-30.87 -4.11,8.43 -5.38,13.13 -8.17,24.39 -2.96,11.96 -9.49,10.01 -20.03,15.47 -15.41,7.97 -26.81,18.12 -43.11,25.73 -19.75,9.23 -37.18,5.64 -56.35,12.39 -14.01,4.93 -25.11,21.07 -25.29,33.06 -0.19,12.94 -0.92,3.66 2.14,7.6zm-92.49 -6.17c0,45.92 13.28,68.86 46.74,95l105.72 88.13c5.67,4.59 11.31,9.35 16.92,14.35 28.85,25.69 65.45,60.98 101.6,60.98 70.4,0 74.97,-21.11 114.16,-65.1 31.66,-35.54 73.25,-89.92 102.1,-120.93 19.7,-21.19 46.38,-53.73 46.38,-82.85 0,-52.09 -7.24,-67.38 -49.38,-102.78l-70.34 -58.89c-7.19,-5.59 -9.77,-8.67 -16.96,-14.31l-53.49 -44.48c-31.43,-28.08 -47.01,-44.26 -95.39,-44.26 -62.49,0 -91.05,60.19 -127.68,99.53l-89.58 106.35c-15.73,19.31 -30.79,36.93 -30.79,69.27z"/>
  <rect class="fil1 str1" transform="matrix(1.00123 0.871363 -0.871363 1.00123 267.764 -2.149)" width="302.55" height="302.55" rx="94.21" ry="94.21"/>
  <path class="fil2" d="M391.08 286.05c34.18,-13.94 52.63,38.12 19.75,49.89 -34.89,12.48 -53.65,-36.07 -19.75,-49.89zm-219.01 -0.22c37.63,-7.64 44.02,42.75 13.14,51.55 -34.59,9.85 -51.46,-43.76 -13.14,-51.55zm-66.03 9.02c-3.05,-3.95 -2.33,5.34 -2.14,-7.6 0.18,-11.98 11.28,-28.13 25.29,-33.06 19.18,-6.75 36.61,-3.16 56.35,-12.39 16.29,-7.61 27.69,-17.75 43.11,-25.73 10.54,-5.45 17.07,-3.51 20.03,-15.47 2.79,-11.26 4.06,-15.96 8.17,-24.39 -26.55,3.03 -49.96,19.29 -68.63,30.87 -38.93,24.14 -46.85,9.1 -75.12,22.8 -18.44,8.94 -39.14,32.68 -38.11,63.04 1.27,37.17 33.11,32.05 65.7,32.56 6.45,6.75 5.94,11.12 14.99,16.92 22.19,14.22 46.57,6.34 57.55,-16.62 35.19,-2.01 68.34,5.6 78.06,-28.16 10.6,-36.79 -7.03,-89.22 9.25,-95.34 0.36,-0.14 1.05,-0.53 1.52,-0.68 3.52,-1.12 43.67,-8.12 94.52,29.12 18.75,13.73 22.68,11.44 47.25,17.48 19.28,4.74 16.34,30.02 10.84,47.77 -27.88,2.64 -16.24,-5.77 -31.68,-16.52 -35.02,-24.39 -50.74,15.11 -63.61,17.02 -11.72,1.74 -34.03,-0.23 -47.63,0.6 -3.44,11.45 -11.25,21.57 -12.17,28.23l64.14 0.08c10.85,10.62 12.95,24.3 37.54,24.1 18.97,-0.16 30.53,-11.36 34.43,-24.23 39.01,0.57 46.6,-1.29 50.07,-41.2 6.48,-74.6 -36.48,-56.62 -64.66,-71.43 -19.32,-10.16 -38.43,-34.61 -94.94,-40.75 -96.11,-10.44 -44.48,76.26 -61.13,115.99 -5,11.95 -24.3,10.3 -36.93,9.53 -22.54,-1.37 -14.77,-7.27 -28.13,-17.88 -8.98,-7.13 -22.16,-9.76 -35.75,-4.87 -17.46,6.29 -13.73,13.85 -23.1,21.91l-35.08 -1.71z"/>
  <path class="fil0" d="M391.08 286.05c-33.9,13.82 -15.15,62.37 19.75,49.89 32.88,-11.77 14.44,-63.83 -19.75,-49.89z"/>
  <path class="fil0" d="M172.07 285.83c-38.32,7.78 -21.45,61.39 13.14,51.55 30.89,-8.79 24.49,-59.19 -13.14,-51.55z"/>
 </g>
</svg>
